<?xml version="1.0" encoding="utf-8"?>
<!DOCTYPE svg PUBLIC "-//W3C//DTD SVG 1.1//EN" "http://www.w3.org/Graphics/SVG/1.1/DTD/svg11.dtd">
<svg version="1.1" xmlns="http://www.w3.org/2000/svg" xmlns:xlink="http://www.w3.org/1999/xlink" x="0px" y="0px" width="58.5px"
	 height="62px" viewBox="0 0 58.5 62" enable-background="new 0 0 58.5 62" xml:space="preserve">
<g id="heart">
	<path fill="#FFFFFF" stroke="#000000" stroke-miterlimit="10" d="M24.43,52.45"/>
	<path fill="#FFFFFF" stroke="#000000" stroke-miterlimit="10" d="M24.43,50.392"/>
	<path fill="#FFFFFF" stroke="#000000" stroke-miterlimit="10" d="M24.863,50.392"/>
	<path fill="#FFFFFF" stroke="#000000" stroke-miterlimit="10" d="M29.088,57.324"/>
	<g>
		<g>
			<g>
				<g>
					<path fill="#92D7E7" d="M30.039,44.182c0.593,1.024-1.467-2.951-0.169-0.789c-0.372-0.795-1.053-1.96-1.775-3.168
						c-0.714-1.218-1.414-2.548-1.926-3.544c0.093-0.33,1.163,1.333-0.494-2.288c-0.931-2.523-0.967-2.691-1.15-2.744
						c-0.077-0.03-0.155-0.041-0.292-0.341c-0.143-0.298-0.332-0.891-0.544-2.099c0,0,0.02,0.21,0.081,0.519
						c0.057,0.31,0.133,0.723,0.21,1.136c0.099,0.409,0.197,0.817,0.271,1.125c0.078,0.306,0.146,0.505,0.146,0.505
						c-0.691-1.546-1.388-4.378-1.249-7.593c0.073-1.602,0.336-3.306,1.031-4.927c0.151-0.408,0.414-0.794,0.62-1.184
						c0.295-0.362,0.511-0.758,0.886-1.066c0.175-0.159,0.339-0.326,0.526-0.468c0.205-0.126,0.409-0.251,0.61-0.375
						c0.414-0.231,0.805-0.368,1.23-0.489c1.296-0.276,2.696,0.055,3.682,0.738c0.998,0.681,1.716,1.563,2.338,2.498
						c1.225,1.89,2.12,4.04,3.123,6.591c-0.13-0.275-0.701-1.498-0.715-1.199c0.283,0.966,0.921,2.61,1.261,3.593
						c1.058,2.665,0.119-0.87,0.617,0.103c0.21,0.575,0.433,1.231,0.604,1.747c0.098,0.237,0.179,0.43,0.241,0.619
						c0.174-0.145,0.338-0.285,0.517-0.398c0.128-0.082,0.258-0.165,0.391-0.25c0.16-0.093,0.323-0.188,0.49-0.285
						c0.338-0.187,0.696-0.373,1.094-0.54c0,0,0.267-0.096,0.686-0.21c0.432-0.101,1.004-0.241,1.705-0.166
						c0.751,0.048,1.377,0.588,1.56,1.075c0.111,0.246,0.145,0.44,0.172,0.574c0.023,0.134,0.024,0.206,0.024,0.206
						c0.577,1.546,0.089,3.459-0.635,5.498c-0.756,2.059-1.852,4.328-3.045,6.892c-0.395,0.419-1.166,1.973-2.03,3.484
						c-0.85,1.518-1.827,2.984-2.306,3.331c-0.822,1.071-1.122,0.993-1.332,0.866c-0.111-0.065-0.218-0.147-0.394-0.138
						c-0.166-0.011-0.453,0.155-0.705,0.175c-1.723,0.269-1.163,0.109-0.553-0.062c0.145-0.042,0.289-0.084,0.403-0.117
						c0.088-0.026,0.106-0.051,0.1-0.063c-0.007-0.013-0.01-0.019-0.163-0.008c-0.191,0.027-0.483,0.069-0.918,0.132
						c0.237-0.056,0.446-0.105,0.634-0.149c0.15-0.03,0.283-0.057,0.405-0.081c0.056,0.006,0.209-0.092,0.356-0.174
						c0.283-0.174,0.493-0.245,0.726-0.351c0.452-0.219,1.101-0.563,2.496-2.881l-0.24,0.161c1.042-1.95,3.155-5.184,3.48-6.72
						c2.387-5.269,0.411,0.293,1.778-2.226c0.187-0.824,0.877-2.79,1.183-4.645c0.156-0.921,0.204-1.82,0.074-2.437
						c-0.127-0.646-0.39-0.837-0.487-0.789c0.003,0.013,0.098,0.099,0.176,0.417c0.08,0.32,0.096,0.832,0.042,1.356
						c-0.104,1.054-0.418,2.124-0.418,2.124c0.169-0.692-0.051-0.182-0.013-0.471c0.269-0.688,0.485-1.802,0.304-2.759
						c-0.232-0.935-0.682-0.755-1.596-0.374c-1.654,0.868-2.772,1.926-2.166,0.776c0.449-0.396,1.807-1.052,2.169-1.257
						c-0.124-0.099-0.781,0.079-1.611,0.537c-0.209,0.106-0.422,0.247-0.648,0.38c-0.246,0.161-0.501,0.329-0.76,0.5
						c-0.592,0.428-1.204,0.869-1.787,1.29c-0.053-0.25-0.104-0.489-0.154-0.723c-0.119-0.351-0.243-0.714-0.369-1.086
						c-0.071-0.2-0.143-0.402-0.216-0.606c-0.075-0.207-0.124-0.313-0.19-0.477c-0.259-0.615-0.525-1.248-0.794-1.888
						c-0.58-1.406-1.148-2.786-1.844-4.474c-0.477-1.161,0.006-0.572-0.519-1.718c-0.967-1.582-1.832-2.617-2.633-3.282
						c-0.8-0.666-1.521-1.012-2.306-1.064c-0.768-0.045-1.691,0.143-2.5,0.836c-0.826,0.707-1.538,2.023-1.852,3.946
						c-0.626,2.371-0.493,5.219,0.112,7.913c0.306,1.352,0.744,2.67,1.291,3.908c0.599,1.22,1.166,2.416,1.67,3.573
						c-0.063-0.399,0.331,0.333,0.831,1.264c0.521,0.922,1.122,2.056,1.363,2.51c0.259,0.677,1.485,3.173,2.534,4.882
						c-0.591-1.024-0.331-0.344-0.792-1.028c0.585,0.967,1.029,1.749,1.365,2.383c0.168,0.316,0.309,0.597,0.427,0.844
						c0.057,0.122,0.11,0.238,0.161,0.349l0.07,0.158l0.017,0.039l0.01,0.022l0.009,0.017l0.003,0.005
						c-0.002-0.007-0.008-0.003,0.052,0.065c0.015,0.044,0.278,0.212,0.514,0.057c0.177-0.138,0.157-0.216,0.176-0.251
						c0.007-0.03,0.009-0.056,0.01-0.086c0.001-0.06-0.013-0.121-0.036-0.172l-0.044-0.105c-0.299-0.759-0.299-1.065-0.263-1.233
						c0.233,0.365,0.443,0.694,0.638,1l0.039,0.061l0.031,0.054c-0.018-0.038,0.056,0.107,0.071,0.195
						c0.024,0.102,0.029,0.21,0.017,0.307c-0.099,0.026,0.216,0.308-0.681,0.739c-1.008-0.012-0.874-0.505-0.911-0.38l-0.016-0.023
						l-0.015-0.023l-0.078-0.114l-0.141-0.206c-0.091-0.131-0.179-0.257-0.265-0.38c-0.339-0.476-0.64-0.897-0.94-1.318
						C31.607,46.94,31.004,46,30.039,44.182z"/>
					<path fill="#92D7E7" d="M23.996,52.438c0.516-0.099-1.365-0.677-2.709-1.471c-0.709-0.32-1.228-0.773-1.399-0.922
						c-0.162-0.167,0.076-0.114,0.992,0.306c-1.133-0.788-2.001-1.283-2.647-1.842c-0.681-0.511-1.265-0.905-1.835-1.434
						c0.515,0.609,0.758,0.863,0.834,0.934c0.068,0.079-0.05-0.004-0.205-0.115c-0.293-0.24-0.703-0.636-0.179,0.067
						c-3.84-3.47-6.394-8.178-7.215-13.107c-0.257-1.228-0.289-2.477-0.357-3.715c0.059-1.237,0.083-2.474,0.318-3.683
						c0.41-2.414,1.119-4.777,2.262-6.906c1.76-3.139,4.015-5.705,6.601-7.813c2.6-2.083,5.625-3.699,9.075-4.448
						c4.322-0.328,1.516,0.351,0.635,0.708c0,0,0.325-0.035,0.813-0.088c0.244-0.023,0.528-0.064,0.834-0.082
						c0.307,0.002,0.634,0.005,0.961,0.007c0.654,0.009,1.311-0.01,1.794,0.068c0.486,0.052,0.81,0.087,0.81,0.087
						s-0.329-0.015-0.822-0.037c-0.49-0.048-1.152,0.015-1.807,0.045c-0.327,0.018-0.653,0.036-0.959,0.053
						C29.49,9.103,29.208,9.15,28.966,9.19c-0.481,0.083-0.803,0.138-0.803,0.138c-0.068,0.104,0.475,0.097,1.189,0.063
						c0.714-0.049,1.612,0.067,2.241,0.119c-0.003-0.041,1.433,0.062,1.433,0.062c-0.222,0.09-0.545,0.14-0.949,0.159
						c-0.403,0.038-0.881,0.091-1.423,0.104c-0.273,0.005-0.559,0.01-0.857,0.016c-0.298,0.033-0.609,0.068-0.932,0.104
						c-0.323,0.03-0.656,0.062-1,0.093c-0.343,0.032-0.684,0.129-1.038,0.19c-2.832,0.485-5.918,1.893-7.716,3.497
						c1.117-0.917,1.721-1.212,1.884-1.375c0.175-0.146-0.03-0.068-0.329,0.063c-0.605,0.245-1.554,0.775-0.565,0.016
						C20.07,12.39,18.589,13.5,18.589,13.5c1.232-1.039,3.873-3.225,8.138-4.198c-2.95,0.596-5.734,1.929-8.069,3.753
						c-2.342,1.822-4.243,4.12-5.614,6.609c-2.754,4.997-3.355,10.695-2.207,15.341c-0.099-0.264-0.29-0.999-0.214-0.126
						c0.094,0.866,0.389,1.6,0.594,2.269c0.196,0.675,0.515,1.228,0.77,1.731c0.486,1.02,1.072,1.708,1.453,2.343l-0.79-1.269
						c0.188,0.493,0.442,1.052,0.735,1.646c0.306,0.586,0.736,1.158,1.131,1.76c0.862,1.16,1.876,2.256,2.797,3.11
						c0.415,0.558,0.892,0.968,1.341,1.417l0.694,0.669c0.267,0.194,0.536,0.391,0.813,0.593c0.29,0.203,0.588,0.411,0.902,0.631
						c0.328,0.205,0.706,0.365,1.098,0.563c0.401,0.177,0.808,0.421,1.292,0.57c0.482,0.143,1.002,0.297,1.569,0.465l-0.205,0.134
						c-0.044,0.146,3.745,0.867,3.76,0.749c-0.959-0.011-0.576,0.086-0.376,0.135c-0.288,0.044-0.487,0.016-1.152-0.147
						c-0.14,0.096,0.255,0.423,0.999,0.61c0.371,0.098,0.824,0.197,1.328,0.291c0.261,0.045,0.525,0.09,0.789,0.136
						c0.272,0.02,0.551,0.017,0.834,0.021c-0.709,0.075-1.421-0.009-1.926-0.015c0.459,0.052,1.208,0.154,2.019,0.087
						c0.407-0.014,0.83-0.027,1.244-0.041c0.416-0.001,0.816-0.027,1.17-0.095c1.425-0.203,2.268-0.261,0.707,0.23
						c-1.329,0.35-2.381,0.287-3.218,0.324c-0.84,0.049-1.503-0.124-2.14-0.218c-0.638-0.117-1.26-0.173-2.012-0.4
						C26.09,52.969,25.168,52.859,23.996,52.438z"/>
					<path fill="#92D7E7" d="M41.178,42.664c-1.861,3.229,0.314-1.028-0.256-0.394c0,0,0.358-0.747,0.717-1.494
						c0.337-0.755,0.674-1.511,0.674-1.511C42.573,39.271,41.187,42.289,41.178,42.664z"/>
					<path fill="#92D7E7" d="M49.736,15.383c0.147,0.331,1.881,2.174,2.647,3.389c0.404,0.569,0.74,1.041,1.05,1.478
						c0.289,0.442,0.53,0.86,0.796,1.311c0.5,0.914,1.027,2.018,1.524,4.032c-0.316-0.751-0.513-0.881-0.521-0.659
						c-0.005,0.222,0.065,0.833,0.176,1.618c0.073,0.389,0.085,0.837,0.126,1.298c0.054,0.46,0.047,0.945,0.028,1.424
						c-0.018,0.478-0.009,0.949-0.056,1.387c-0.07,0.423-0.136,0.823-0.197,1.188c0.071-0.979-0.013-2.374-0.249-3.872
						c-0.231-1.503-0.701-3.089-1.146-4.565c0.138,0.145-0.022-0.438-0.31-1.211c-0.33-0.754-0.763-1.711-1.14-2.299
						c-0.677-0.84-0.606-0.374-0.967-0.598c-0.188-0.105-0.492-0.372-1.065-1.026c-0.594-0.636-1.504-1.63-3.093-2.996
						c-0.584-0.5-1.625-1.344-2.588-1.909c-0.913-0.644-1.737-1.006-1.55-1.101c-0.906-0.619-1.988-0.636-3.011-1.289
						c0,0-0.13-0.083-0.26-0.167c-0.132-0.079-0.27-0.145-0.27-0.145s0.081,0.021,0.222,0.056c0.137,0.048,0.333,0.116,0.568,0.199
						c0.471,0.167,1.099,0.39,1.726,0.613c0.605,0.281,1.21,0.562,1.664,0.773c0.463,0.198,0.74,0.386,0.74,0.386
						c0.146,0.14,0.445,0.423,0.863,0.668c-0.185-0.176,0.041-0.094,0.447,0.098c0.411,0.185,0.939,0.565,1.442,0.86
						c0.506,0.291,0.919,0.58,1.063,0.624c0.137,0.053,0.063-0.21-0.591-0.821c0,0-0.374-0.288-0.935-0.719
						c-0.545-0.454-1.38-0.902-2.167-1.42c-0.827-0.448-1.674-0.862-2.307-1.171c-0.656-0.257-1.094-0.428-1.094-0.428
						c-0.827-0.392-0.63-0.396,0.102-0.18c0.361,0.118,0.874,0.25,1.424,0.493c0.551,0.261,1.162,0.549,1.778,0.84
						c0.836,0.553,1.429,0.992,1.911,1.315c0.462,0.365,0.795,0.628,1.097,0.867C48.249,14.171,48.715,14.545,49.736,15.383z"/>
					<path fill="#92D7E7" d="M32.583,8.747l-0.396-0.122c0,0,0.406,0.038,1.015,0.094c0.606,0.075,1.427,0.091,2.229,0.25
						c0.805,0.146,1.61,0.292,2.213,0.401c0.592,0.163,0.987,0.272,0.987,0.272S38.26,9.545,37.702,9.4
						c-0.567-0.097-1.323-0.225-2.079-0.354c-0.751-0.155-1.52-0.167-2.089-0.225C32.963,8.776,32.583,8.747,32.583,8.747z"/>
					<path fill="#92D7E7" d="M54.703,38.536c0.408-1.244,0.794-2.32,1.048-3.61l0.389-0.077c0,0-0.066,0.241-0.196,0.593
						c-0.125,0.351-0.292,0.819-0.458,1.287c-0.149,0.474-0.381,0.911-0.527,1.249C54.805,38.313,54.703,38.536,54.703,38.536z"/>
					<path fill="#92D7E7" d="M13.285,21.228c-0.098,0.408-0.291,0.939-0.53,1.526c-0.201,0.615-0.418,1.28-0.634,1.94
						c-0.184,0.673-0.317,1.351-0.445,1.935c-0.115,0.586-0.11,1.103-0.103,1.44c0.171-1.089,0.036-0.727,0.021-1.005
						c0,0-0.106,0.525-0.213,1.051c-0.054,0.264-0.108,0.526-0.149,0.725c-0.048,0.197-0.047,0.332-0.047,0.332
						C11.211,26.498,12.001,23.911,13.285,21.228z"/>
					<path fill="#92D7E7" d="M47.77,49.588c-0.738,0.816-1.32,1.476-1.829,2.068c-0.53,0.564-1.005,1.068-1.486,1.58
						c-0.999,0.993-2.11,2.027-4.266,3.464c-0.961,0.579,1-0.971-0.352-0.077c-1.397,0.812-1.623,1.155-2.258,1.64l0.589-0.234
						c-0.574,0.26-1.779,0.778-2.599,1.115c-0.825,0.318-1.3,0.388-0.513-0.25c2.823-1.475,4.608-3,6.197-4.405
						c1.555-1.461,2.936-2.801,4.745-4.437L46.87,49.7c0,0,0.493-0.549,0.937-1.14c0.455-0.58,0.91-1.16,0.91-1.16
						c0.162-0.129,0.183-0.006,0.746-0.817c1.082-1.75-1.027,1.119-1.112,0.832c0,0,0.226-0.272,0.516-0.718
						c0.297-0.438,0.693-1.023,1.089-1.607c0.358-0.607,0.716-1.215,0.984-1.67c0.277-0.449,0.423-0.771,0.423-0.771
						c0.354-0.59-0.179,0.556-0.047,0.399c0.725-1.125,1.203-2.111,1.538-3.101c0.398-0.964,0.668-1.91,1.226-2.935
						c0,0-0.253,0.838-0.507,1.676c-0.283,0.829-0.621,1.643-0.621,1.643c1.826-3.818,2.726-6.969,2.858-10.021
						c0.005,0.543-0.067,1.066-0.09,1.579c-0.016,0.256-0.032,0.509-0.048,0.759c-0.039,0.246-0.077,0.489-0.115,0.729
						c-0.072,0.48-0.143,0.95-0.213,1.413c-0.105,0.45-0.209,0.894-0.312,1.33c-0.4,1.745-0.953,3.313-1.572,4.829
						C52.183,43.958,50.514,46.748,47.77,49.588z"/>
				</g>
			</g>
		</g>
	</g>
	<g>
		<g>
			<path fill="#92D7E7" d="M31.875,59.459c0.228,0,0.786-0.344,0.3-0.344C31.947,59.115,31.389,59.459,31.875,59.459L31.875,59.459z
				"/>
		</g>
	</g>
	<g>
		<g>
			<path fill="#92D7E7" d="M33.345,60.15c0.314-0.043,0.727-0.187,0.831-0.522c0.124-0.399-0.598-0.383-0.691-0.08
				c-0.024,0.026-0.049,0.053-0.073,0.079C33.015,59.682,32.853,60.219,33.345,60.15L33.345,60.15z"/>
		</g>
	</g>
</g>
<g id="text">
	<g>
		<path fill="#F6C785" d="M4.91,46.543c-0.099-0.154-0.084-0.327,0.044-0.519l0.021-0.014c0.049-0.031,0.335-0.12,0.857-0.269
			l0.899-0.392l0.06-0.069c0.114-0.032,0.2-0.067,0.257-0.104l-0.007-0.057l0.167-0.01c0.014-0.009,0.026-0.028,0.037-0.06
			c0.074-0.022,0.115-0.037,0.123-0.042l0.111-0.107l0.017,0.026l0.016-0.047c0.185-0.073,0.323-0.119,0.415-0.138
			c0.057-0.057,0.1-0.095,0.13-0.113c0.104-0.066,0.194-0.094,0.271-0.083c0.098-0.082,0.159-0.131,0.184-0.146
			c0.018,0.028,0.067,0.027,0.148-0.004c-0.009-0.015-0.008-0.025,0.002-0.032c0.022,0.034,0.101,0.037,0.236,0.007
			c0.026-0.061,0.052-0.1,0.077-0.115c0.039,0.061,0.182,0.011,0.431-0.148c0.019,0.029,0.118,0.016,0.299-0.039
			c0.009,0.015,0.021,0.018,0.034,0.009c0.024-0.016,0.043-0.038,0.056-0.066c0.248-0.033,0.454-0.092,0.616-0.175l0.014,0.021
			l0.023-0.045l0.364-0.173l0.566-0.452l0.027,0.043c-0.132,0.125-0.21,0.226-0.235,0.302l-0.16,0.103l-0.023,0.081l0.044,0.032
			l0.014,0.021l-0.123,0.079l-0.028-0.043l0.017-0.011l0.051-0.002l-0.011-0.054c-0.011,0.007-0.063,0.028-0.156,0.063l0.01,0.061
			c0.025-0.016,0.046-0.009,0.064,0.02l0.014,0.021l-0.074,0.047l0.014,0.021c0.019-0.012,0.053-0.014,0.102-0.004l0.144-0.092
			l0.014,0.021l0.007,0.057l0.074-0.048l-0.055-0.086c0.01-0.026,0.029-0.049,0.056-0.065c0.014-0.009,0.036-0.014,0.067-0.013
			c0.013-0.028,0.032-0.051,0.056-0.066c0.009,0.015,0.021,0.018,0.034,0.009c-0.023-0.038,0.011-0.101,0.105-0.188l0.051-0.002
			l0.149-0.156l0.027,0.043c-0.148,0.28-0.278,0.457-0.391,0.528L11.25,43.89l-0.319,0.325l-0.121,0.046l-0.077,0.079
			c-0.018-0.028-0.04-0.035-0.064-0.019l-0.053,0.033l0.048,0.03c-0.013,0.009-0.016,0.021-0.006,0.035
			c-0.085,0.029-0.162,0.038-0.232,0.026l-0.167,0.137c-0.008,0.005-0.048,0.021-0.121,0.047c-0.069,0.084-0.113,0.133-0.133,0.146
			c-0.054,0.03-0.126,0.034-0.218,0.012c-0.052,0.033-0.09,0.079-0.113,0.139c-0.139,0.024-0.218,0.042-0.237,0.055l-0.054,0.034
			l-0.093,0.089c-0.014,0.009-0.069,0.004-0.166-0.015l-0.176,0.112c-0.11,0.07-0.227,0.095-0.352,0.073l-0.083,0.114
			c-0.031-0.001-0.053,0.004-0.067,0.013l-0.019,0.042c-0.157,0.044-0.242,0.056-0.254,0.035l-0.074,0.084l-0.274,0.078
			c-0.015,0.03-0.028,0.048-0.04,0.056l-0.051,0.002c-0.013,0.028-0.026,0.047-0.04,0.056c-0.03,0.019-0.102,0.024-0.215,0.016
			c-0.013,0.028-0.026,0.047-0.04,0.056c-0.031,0-0.054,0.004-0.067,0.013c0.019,0.028,0.015,0.051-0.009,0.066
			c-0.112,0.012-0.174,0.021-0.185,0.027l-0.093,0.09l-0.047-0.001c-0.013,0.028-0.033,0.052-0.06,0.069L6.946,46.11
			c-0.019,0.013-0.051,0.002-0.095-0.03c-0.011,0.007-0.042,0.037-0.093,0.09c-0.049,0.031-0.182,0.086-0.398,0.163l-0.077,0.079
			c-0.086-0.002-0.207,0.033-0.362,0.104l-0.014-0.021l-0.023,0.045c-0.071,0.046-0.143,0.052-0.215,0.017l-0.093,0.09
			c-0.292,0.146-0.471,0.167-0.537,0.063C4.962,46.613,4.919,46.558,4.91,46.543z M8.598,45.086l0.053-0.034L8.637,45.03
			l-0.053,0.034L8.598,45.086z M10.421,44.321l0.053-0.034c0.023-0.019,0.026-0.04,0.009-0.066l-0.09,0.058L10.421,44.321z
			 M10.688,44.151c0.017-0.011,0.021-0.044,0.012-0.099l-0.09,0.058l0.014,0.021C10.647,44.157,10.669,44.163,10.688,44.151z
			 M11.392,43.362l-0.014-0.021l0.017-0.011l0.104-0.036l0.014,0.021c-0.041,0.026-0.066,0.053-0.077,0.079L11.392,43.362z"/>
		<path fill="#F6C785" d="M3.464,43.851c-0.005-0.009-0.001-0.017,0.01-0.022L3.443,43.81c-0.066-0.277-0.03-0.452,0.108-0.525
			c0.141-0.074,0.245-0.093,0.313-0.055c0.046,0.053,0.231,0.086,0.554,0.1c0.006,0.012,0.16,0.046,0.462,0.103
			c0.04,0.075,0.101,0.091,0.185,0.047l0.102,0.016c-0.011,0.006-0.015,0.014-0.01,0.022c-0.496,0.139-0.917,0.248-1.265,0.328
			L3.805,43.89l-0.042,0.057l-0.052,0.027C3.604,43.911,3.522,43.87,3.464,43.851z M4.8,43.49l0.017-0.009L4.801,43.45l-0.056,0.029
			C4.759,43.499,4.777,43.503,4.8,43.49z M6.208,43.359l-0.021-0.082l-0.021-0.04c-0.027-0.052-0.068-0.114-0.123-0.189l0.003-0.037
			l-0.031-0.018c-0.064-0.232,0.029-0.414,0.278-0.546L6.3,42.461l0.032-0.034c0.141-0.074,0.357-0.11,0.649-0.106l1.014-0.271
			c0.287-0.083,0.555-0.122,0.803-0.118c0.014-0.008,0.066-0.01,0.156-0.008l0.027-0.031l0.244-0.02
			c0.017-0.023,0.03-0.039,0.042-0.045c0.084,0.04,0.131,0.058,0.143,0.052l0.034-0.019l-0.014-0.027l0.017-0.009
			c0.046-0.024,0.112-0.028,0.198-0.012l0.017-0.01l-0.017-0.031l0.039-0.021l0.1,0.022l0.073-0.039l-0.021-0.081
			c-0.042-0.078-0.354-0.226-0.938-0.44c-0.192-0.099-0.371-0.208-0.538-0.328l-0.014-0.027c0.167-0.011,0.314,0.024,0.442,0.107
			c0.006,0.012,0.098,0.029,0.275,0.051c0.016,0.03,0.077,0.046,0.185,0.047c0.022,0.042,0.106,0.04,0.25-0.005
			c0.008,0.015,0.113,0.044,0.316,0.087c0.041,0.048,0.084,0.072,0.133,0.074l0.027-0.032l0.035-0.018l0.021,0.04l-0.035,0.019
			l0.007,0.014l0.032,0.018l0.027-0.031c0.099-0.041,0.155-0.052,0.166-0.03l0.015,0.027l-0.017,0.009h-0.066
			c-0.015,0.02-0.037,0.037-0.066,0.053c0.037,0.049,0.07,0.066,0.099,0.052c0.036-0.043,0.067-0.07,0.093-0.084
			c0.039,0.018,0.063,0.035,0.073,0.054l-0.018,0.009c-0.024,0.002-0.051,0.01-0.08,0.025l0.021,0.041
			c0.012,0.017,0.029,0.02,0.049,0.009c0.018-0.021,0.04-0.039,0.066-0.053c0.035,0.066,0.032,0.147-0.01,0.242
			c0.017-0.009,0.051-0.004,0.102,0.016c-0.017,0.232-0.088,0.414-0.213,0.546l-0.142,0.075c-0.826,0.391-1.247,0.57-1.263,0.54
			c-0.011,0.007-0.015,0.014-0.01,0.023c-0.357,0.15-0.724,0.261-1.098,0.331c-0.25,0.063-0.441,0.103-0.576,0.12
			C6.577,43.329,6.25,43.371,6.208,43.359z M7.657,42.609l0.034-0.018l-0.007-0.014L7.65,42.596L7.657,42.609z M9.177,41.014
			l0.017-0.009c0.017-0.009,0.051-0.004,0.102,0.016l-0.039,0.021C9.24,41.05,9.213,41.041,9.177,41.014z"/>
		<path fill="#F6C785" d="M2.815,38.722l0.351-0.011l0.032-0.039l0.249,0.007c0.012-0.005,0.029-0.021,0.05-0.047
			c0.054-0.021,0.246-0.021,0.575,0c1.185,0.009,1.794,0.007,1.828-0.006l1.706-0.09c0.132,0.025,0.293,0.037,0.485,0.036
			c0.383,0.069,0.616,0.096,0.7,0.077c0.031,0.08,0.128,0.102,0.292,0.067l0.059,0.098l-0.018,0.007l0.037,0.04
			c0.029,0.12,0.026,0.188-0.01,0.202c-0.005-0.013-0.014-0.018-0.025-0.013c0.028,0.073-0.003,0.202-0.095,0.388
			c-0.135,0.137-0.231,0.217-0.289,0.239c-0.045-0.001-0.071-0.007-0.076-0.02l-0.029,0.033c-0.063,0.024-0.101,0.022-0.112-0.006
			l-0.032,0.039l-0.077,0.03c-0.03,0.005-0.049-0.006-0.06-0.031l-0.086,0.061c-0.012,0.005-0.021-0.001-0.027-0.017
			c-0.136,0.09-0.22,0.141-0.254,0.154L7.98,39.897l-0.027,0.038l-0.022,0.009c-0.121,0.048-0.241,0.102-0.36,0.163l-0.144,0.034
			c-0.08,0.063-0.145,0.105-0.196,0.126c-0.012,0.004-0.034,0.004-0.064-0.003c-0.084,0.063-0.396,0.219-0.936,0.47
			c0.005,0.013-0.024,0.031-0.087,0.056c-0.009,0.004-0.051,0.013-0.125,0.027c-0.086,0.066-0.132,0.101-0.138,0.103
			c-0.042-0.001-0.066-0.009-0.071-0.021l-0.094,0.108l-0.125,0.026c0.011,0.029,0.005,0.048-0.02,0.058
			c-0.012,0.005-0.021-0.001-0.027-0.017c-0.07,0.078-0.121,0.124-0.151,0.136L5.346,41.2c-0.156,0.163-0.249,0.251-0.279,0.263
			c-0.184,0.071-0.335,0.047-0.453-0.076l-0.032-0.135c-0.115-0.072-0.176-0.116-0.182-0.132c-0.032-0.083-0.015-0.174,0.051-0.272
			c-0.068-0.175-0.039-0.286,0.088-0.336l0.195-0.076c0.012-0.005,0.021,0.001,0.027,0.017l0.032-0.04l0.113-0.044
			c0.112-0.044,0.191-0.091,0.237-0.142c0.076-0.012,0.136-0.026,0.182-0.044c0.042-0.017,0.071-0.037,0.086-0.061
			c1.274-0.398,1.925-0.562,1.954-0.488l0.041-0.017c0.012-0.004,0.028-0.018,0.047-0.04c0.089-0.021,0.163-0.023,0.221-0.01
			c0.063-0.043,0.111-0.07,0.145-0.084l0.086-0.006c-0.247-0.068-0.907-0.104-1.983-0.109c-0.564-0.035-1.052-0.104-1.461-0.208
			c-0.073,0.028-0.616-0.104-1.629-0.396L2.815,38.722z"/>
		<path fill="#F6C785" d="M2.609,35.09c-0.038-0.303-0.03-0.46,0.023-0.472c0.038-0.009,0.075-0.008,0.11,0.001
			c0.045-0.048,0.091-0.078,0.135-0.088l0.076-0.017l0.17,0.045c-0.007-0.033,0.034-0.079,0.124-0.138
			c0.041,0.064,0.125,0.082,0.251,0.054c-0.007-0.033,0.014-0.056,0.065-0.067c0.009-0.002,0.099,0.004,0.269,0.019
			c0.028-0.024,0.051-0.038,0.07-0.042c0.004,0.017,0.014,0.022,0.03,0.02l-0.012,0.06c0.006,0.027,0.045,0.046,0.118,0.058
			c-0.005-0.037,0.007-0.06,0.035-0.065c0.244-0.01,0.371,0.007,0.381,0.051c-0.016,0.003-0.021,0.015-0.017,0.035
			c0.083,0.026,0.235,0.037,0.457,0.033c0.027-0.027,0.05-0.043,0.069-0.047c0.018,0.063,0.092,0.118,0.223,0.169l0.042-0.035
			l0.076-0.018c0.035-0.008,0.057,0.007,0.064,0.044c-0.035,0.008-0.048,0.028-0.041,0.062c0.304,0.019,0.458,0.038,0.462,0.058
			c0.015,0.066,0.129,0.105,0.341,0.117c0.329,0.132,0.501,0.231,0.516,0.298c0.004,0.02,0.2,0.103,0.585,0.25
			c0.112-0.183,0.153-0.502,0.124-0.96c-0.037-0.089-0.062-0.166-0.076-0.229l-0.036-0.159l0.024-0.006
			c0.036,0.013,0.063,0.018,0.083,0.013l-0.006-0.029c0.057-0.014,0.149,0.121,0.275,0.403c0.035-0.008,0.074,0.012,0.118,0.058
			l-0.011,0.06l0.075,0.088c0.004,0.021-0.003,0.032-0.022,0.037l0.058,0.123l0.006,0.024c0.009,0.04,0.007,0.077-0.005,0.111
			c0.025,0.025,0.043,0.059,0.052,0.099l0.006,0.024c0.008,0.037-0.005,0.059-0.04,0.066l0.047,0.1
			c0.021,0.093-0.001,0.188-0.065,0.287l0.059,0.148c-0.046,0.032-0.06,0.091-0.04,0.177l0.005,0.025
			C7.92,36.001,8,36.037,8.101,36.042c0.279,0.233,0.424,0.376,0.436,0.426l-0.013,0.055c0.268,0.331,0.405,0.512,0.411,0.541
			l-0.023,0.006c-0.042,0.009-0.075-0.021-0.1-0.088l-0.047,0.037l-0.076,0.017l0.024,0.104l-0.024,0.006
			c-0.022,0.005-0.054-0.017-0.094-0.063c0.031-0.024,0.054-0.039,0.07-0.042l-0.029-0.13c-0.051,0.012-0.158-0.038-0.323-0.147
			c-0.028,0.023-0.051,0.038-0.07,0.042c0.01,0.047,0.04,0.096,0.088,0.147c-0.016,0.004-0.021,0.014-0.018,0.03l-0.117-0.031
			c0.007,0.03,0.003,0.087-0.012,0.171c0.066-0.016,0.104-0.006,0.111,0.027l-0.011,0.06c-0.013,0.003-0.089-0.017-0.228-0.059
			c-0.013-0.06-0.003-0.135,0.029-0.227L8.079,36.9c-0.106-0.057-0.206-0.153-0.3-0.289c-0.041,0.01-0.145-0.06-0.311-0.207
			l-0.1,0.022c-0.023,0.117-0.087,0.188-0.192,0.211C7.053,36.711,6.994,36.761,7,36.787l-0.059-0.019L6.87,36.785l0.013,0.055
			L6.73,36.874c-0.041,0.009-0.113,0.043-0.217,0.102c-0.097-0.049-0.324-0.079-0.68-0.094c-0.009-0.04-0.187-0.09-0.533-0.152
			l-0.024,0.006l0.006,0.024l0.047-0.011c0.008,0.037-0.003,0.059-0.035,0.066c-0.015-0.039-0.15-0.091-0.404-0.155
			c-0.054-0.048-0.14-0.075-0.259-0.083c-0.076-0.074-0.152-0.103-0.229-0.085l0.005,0.024c0.14,0.073,0.212,0.122,0.218,0.146
			l-0.052,0.012c-0.067,0.015-0.159-0.047-0.276-0.185c-0.035,0.008-0.13-0.024-0.287-0.098c-0.101,0.023-0.17-0.045-0.206-0.205
			l-0.041,0.041l-0.052,0.012c-0.023-0.103-0.105-0.158-0.247-0.164c-0.017-0.073-0.154-0.172-0.411-0.295
			c-0.012-0.054-0.055-0.126-0.129-0.218l0.018-0.056c-0.026-0.029-0.042-0.054-0.046-0.073c0.034-0.012,0.047-0.032,0.041-0.062
			l-0.17-0.156l0.017-0.056C2.774,35.113,2.715,35.09,2.609,35.09z M2.649,35.269l-0.017-0.074l0.052-0.012l0.017,0.074
			L2.649,35.269z M3.113,35.578l0.046-0.037c-0.049-0.072-0.093-0.109-0.13-0.111L3.014,35.49l0.005,0.025
			C3.025,35.542,3.057,35.563,3.113,35.578z M3.213,35.666c0.061,0.021,0.106,0.028,0.135,0.021l-0.011-0.05
			c-0.067,0.015-0.104,0.004-0.112-0.032L3.2,35.61L3.213,35.666z M3.499,35.873l0.071-0.016c-0.061-0.095-0.106-0.139-0.134-0.132
			L3.423,35.78C3.468,35.815,3.493,35.847,3.499,35.873z M3.67,35.589l0.076-0.018L3.74,35.547c-0.008-0.036-0.03-0.051-0.064-0.043
			l-0.048,0.011C3.651,35.544,3.666,35.569,3.67,35.589z M3.904,36.164l0.059,0.019l-0.018-0.08
			C3.911,36.11,3.896,36.131,3.904,36.164z M4.063,35.338l0.152-0.034c0.019-0.004,0.085,0.1,0.2,0.312
			c0.092,0.069,0.229,0.13,0.41,0.18c0.165,0.109,0.481,0.185,0.95,0.227l0.591,0.055l0.048-0.011
			c0.055-0.064,0.143-0.11,0.263-0.138l-0.012-0.055c-0.181-0.109-0.454-0.229-0.82-0.36l-0.955-0.36
			c-0.007-0.033-0.117-0.056-0.33-0.067c-0.147-0.033-0.245-0.074-0.292-0.123L4.144,34.99l0.006,0.024l0.053,0.124
			c-0.03,0.046-0.084,0.077-0.164,0.095L4.063,35.338z M4.396,36.467l0.024-0.005l-0.012-0.055
			c-0.019,0.004-0.046,0.002-0.082-0.008l0.005,0.024C4.347,36.459,4.368,36.474,4.396,36.467z M4.501,36.224
			c0.03-0.014,0.042-0.034,0.037-0.061c-0.008-0.036-0.028-0.051-0.06-0.044c-0.035,0.008-0.048,0.03-0.04,0.066
			C4.452,36.218,4.473,36.23,4.501,36.224z M5.857,36.521l0.076-0.017c0.034-0.012,0.048-0.032,0.041-0.062l-0.005-0.025
			L5.84,36.446L5.857,36.521z M6.003,36.817l0.052-0.012c-0.007-0.033-0.028-0.046-0.063-0.038L6.003,36.817z M6.032,36.591
			l0.129-0.003l-0.017-0.074l-0.124,0.027L6.032,36.591z M6.489,36.515l0.052-0.012l-0.005-0.025
			c-0.005-0.022-0.037-0.044-0.094-0.063l-0.023,0.006l0.012,0.055C6.441,36.508,6.461,36.521,6.489,36.515z M6.56,36.362
			l0.123-0.054l-0.005-0.024L6.648,36.29c-0.028,0.023-0.05,0.037-0.065,0.041c-0.004-0.017-0.015-0.022-0.034-0.019L6.56,36.362z
			 M6.722,33.2l-0.011-0.05l0.047-0.011l0.011,0.05L6.722,33.2z M6.712,36.082l0.071-0.016c0.033-0.015,0.047-0.035,0.041-0.062
			c-0.008-0.037-0.03-0.051-0.065-0.043L6.712,36.082z M6.824,33.318l-0.007-0.029l0.052-0.012l0.018,0.079
			C6.851,33.358,6.83,33.346,6.824,33.318z M6.83,36.495c0.096-0.046,0.141-0.084,0.134-0.113l-0.029,0.006L6.817,36.44L6.83,36.495
			z M6.858,33.474l-0.005-0.025l0.052-0.012c0.025-0.006,0.057,0.016,0.094,0.063l0.006,0.025l-0.024,0.005
			C6.905,33.519,6.864,33.5,6.858,33.474z M6.953,36.222l0.076-0.017c0.03-0.015,0.042-0.036,0.035-0.066l-0.005-0.024l-0.024,0.005
			c-0.033,0.046-0.062,0.072-0.087,0.078L6.953,36.222z M6.958,33.671l0.063-0.072l0.024-0.005c0.018,0.079,0.124,0.239,0.317,0.479
			l-0.024,0.005c-0.032,0.007-0.054-0.016-0.065-0.069l-0.028,0.007l-0.041,0.04L6.958,33.671z M7.087,36.354l0.076-0.017
			c0.031-0.011,0.043-0.031,0.036-0.061l-0.076,0.017C7.092,36.301,7.08,36.32,7.087,36.354z M7.269,35.518L7.345,35.5l-0.017-0.075
			c-0.031,0.025-0.054,0.039-0.07,0.043L7.269,35.518z M7.428,35.648l0.028-0.006c0.054-0.013,0.136-0.231,0.247-0.658l-0.054-0.239
			C7.594,34.5,7.5,34.32,7.368,34.207l-0.012,0.06c0.01,0.044,0.049,0.098,0.117,0.162l0.036,0.16L7.475,34.68
			c0.037,0.09,0.06,0.156,0.07,0.199C7.533,35.196,7.494,35.452,7.428,35.648z M7.609,35.634l0.028-0.006l-0.011-0.05l-0.029,0.006
			L7.609,35.634z M7.651,35.463l0.023-0.006c0.025-0.006,0.045-0.038,0.058-0.097c-0.008-0.036-0.028-0.052-0.06-0.044
			C7.65,35.381,7.643,35.43,7.651,35.463z M7.732,35.826l0.076-0.017l-0.018-0.08l-0.052,0.012
			C7.743,35.761,7.741,35.79,7.732,35.826z M8.178,36.742l0.1-0.022l-0.006-0.03c-0.008-0.033-0.054-0.04-0.14-0.021
			C8.158,36.697,8.174,36.722,8.178,36.742z M8.6,36.861l-0.005-0.024c-0.005-0.021-0.046-0.084-0.124-0.192l-0.076,0.017
			C8.506,36.801,8.574,36.867,8.6,36.861z"/>
		<path fill="#00BBD6" d="M3.52,26.211c0.019-0.014,0.052-0.017,0.1-0.009l0.005-0.03l0.009-0.138l0.034,0.005
			c-0.009,0.054-0.003,0.083,0.02,0.086l0.015,0.002c0.148-0.078,0.292-0.13,0.432-0.154c0.137,0.023,0.268,0.189,0.39,0.497
			c-0.011,0.064,0.016,0.135,0.082,0.215c-0.01,0.061,0.054,0.147,0.193,0.262c0.003-0.021,0.01-0.03,0.02-0.028
			c-0.009,0.051,0.028,0.097,0.11,0.138l0.067,0.012l-0.01,0.056L4.788,27.09c-0.006,0.037,0.055,0.075,0.183,0.114
			c-0.008,0.051,0.014,0.084,0.067,0.1l-0.01,0.056c-0.013-0.002-0.065-0.021-0.158-0.058c-0.063,0.026-0.188,0.035-0.375,0.023
			L4.468,27.29l-0.106,0.013l-0.063-0.011c-0.022-0.042-0.042-0.064-0.058-0.066L4.122,27.23l0.004-0.025l-0.038,0.02l-0.083-0.097
			L3.905,27.11c0.012-0.07-0.033-0.135-0.135-0.193l-0.038,0.02c-0.039-0.007-0.103-0.094-0.193-0.261
			c-0.016-0.117-0.034-0.177-0.053-0.18L3.52,26.211z"/>
		<path fill="#F6C785" d="M3.62,16.837c0.088-0.162,0.246-0.233,0.476-0.213l0.021,0.012c0.051,0.028,0.268,0.234,0.65,0.62
			l0.779,0.597l0.089,0.019c0.084,0.084,0.156,0.143,0.216,0.175l0.045-0.033l0.09,0.142c0.014,0.008,0.038,0.009,0.07,0.003
			c0.056,0.053,0.088,0.083,0.097,0.087l0.147,0.045l-0.015,0.027l0.049-0.009c0.153,0.126,0.261,0.225,0.321,0.296
			c0.077,0.022,0.131,0.042,0.162,0.059c0.108,0.059,0.176,0.125,0.204,0.197c0.119,0.045,0.192,0.075,0.217,0.089
			c-0.016,0.03,0.009,0.072,0.075,0.127c0.008-0.015,0.018-0.019,0.029-0.013c-0.02,0.036,0.017,0.106,0.108,0.21
			c0.066-0.007,0.112-0.003,0.138,0.011c-0.034,0.063,0.079,0.165,0.338,0.306c-0.016,0.03,0.043,0.111,0.179,0.242
			c-0.008,0.015-0.005,0.026,0.009,0.034c0.025,0.014,0.054,0.02,0.085,0.017c0.149,0.201,0.3,0.353,0.452,0.454L8.642,20.36
			l0.05-0.002l0.327,0.235l0.67,0.276l-0.024,0.045c-0.173-0.055-0.299-0.075-0.378-0.06l-0.167-0.091l-0.083,0.02l-0.007,0.054
			l-0.012,0.022l-0.128-0.07l0.024-0.045l0.017,0.009l0.026,0.043L9,20.763c-0.011-0.006-0.055-0.042-0.131-0.106L8.82,20.695
			c0.026,0.014,0.031,0.036,0.014,0.065l-0.012,0.022l-0.077-0.042l-0.012,0.022c0.02,0.011,0.038,0.04,0.053,0.086l0.15,0.082
			l-0.012,0.022l-0.046,0.033l0.077,0.042l0.049-0.09c0.028-0.004,0.056,0.002,0.085,0.017c0.014,0.008,0.029,0.025,0.043,0.053
			c0.031-0.002,0.059,0.003,0.085,0.017c-0.008,0.015-0.005,0.026,0.009,0.034c0.021-0.039,0.093-0.039,0.215,0l0.026,0.043
			l0.208,0.055l-0.024,0.045c-0.317,0.006-0.535-0.022-0.652-0.086l0.012-0.022l-0.438-0.121l-0.099-0.083l-0.106-0.028
			c0.016-0.03,0.012-0.052-0.014-0.066l-0.056-0.03l-0.003,0.057c-0.014-0.008-0.025-0.004-0.034,0.011
			c-0.067-0.06-0.112-0.123-0.135-0.189l-0.201-0.08c-0.008-0.005-0.042-0.032-0.099-0.083c-0.107-0.02-0.171-0.035-0.191-0.045
			c-0.053-0.033-0.091-0.094-0.116-0.185c-0.054-0.029-0.113-0.04-0.177-0.032c-0.088-0.11-0.143-0.17-0.163-0.181l-0.056-0.03
			l-0.124-0.038c-0.014-0.008-0.037-0.059-0.067-0.152l-0.184-0.1c-0.114-0.062-0.192-0.152-0.234-0.272l-0.14-0.018
			c-0.015-0.027-0.029-0.045-0.043-0.053L6.287,19.38c-0.114-0.116-0.166-0.185-0.155-0.206L6.023,19.15l-0.201-0.202
			c-0.034,0.001-0.056-0.001-0.068-0.008l-0.026-0.043c-0.031,0.003-0.053,0-0.068-0.007c-0.031-0.017-0.071-0.077-0.118-0.181
			c-0.031,0.003-0.054,0-0.068-0.007c-0.015-0.027-0.029-0.045-0.043-0.053c-0.016,0.03-0.037,0.038-0.063,0.024
			c-0.064-0.093-0.102-0.143-0.113-0.148l-0.124-0.038l-0.022-0.041c-0.031,0.002-0.061-0.004-0.089-0.02l-0.034-0.019
			c-0.02-0.011-0.026-0.043-0.02-0.097c-0.011-0.006-0.052-0.019-0.123-0.038c-0.052-0.028-0.164-0.118-0.336-0.269L4.4,17.974
			c-0.04-0.076-0.128-0.165-0.266-0.266l0.012-0.022l-0.051,0.001c-0.074-0.04-0.114-0.1-0.118-0.18l-0.124-0.038
			c-0.27-0.185-0.375-0.331-0.316-0.438C3.584,16.917,3.612,16.852,3.62,16.837z M6.682,19.356l0.056,0.03l0.012-0.022l-0.056-0.03
			L6.682,19.356z M8.234,20.581l0.056,0.03c0.027,0.011,0.048,0.003,0.063-0.024l-0.094-0.051L8.234,20.581z M8.513,20.731
			c0.017,0.009,0.048-0.003,0.092-0.037l-0.094-0.051l-0.012,0.022C8.488,20.699,8.493,20.721,8.513,20.731z M9.544,20.965
			l0.012-0.022l0.017,0.009l0.082,0.073l-0.012,0.022C9.6,21.025,9.565,21.015,9.537,21.02L9.544,20.965z"/>
		<path fill="#F6C785" d="M7.274,14.449l0.374-0.031c0.304,0.205,0.446,0.437,0.425,0.693c0.075,0.22,0.141,0.348,0.198,0.386
			c0.032-0.048,0.064-0.08,0.094-0.096c-0.013-0.009-0.027-0.029-0.042-0.06l-0.127-0.055c0.03-0.045,0.042-0.129,0.036-0.253
			c0.04-0.06,0.029-0.244-0.033-0.552c0.019-0.028,0.024-0.088,0.016-0.18l0.042-0.063c0.189-0.164,0.331-0.214,0.425-0.151
			l0.036,0.024c0.014,0.009,0.016,0.021,0.006,0.035c0.03,0.02,0.123,0.001,0.28-0.058c0.116,0.078,0.212,0.299,0.288,0.663
			c-0.013-0.009-0.025-0.006-0.034,0.008c0.067,0.045,0.113,0.097,0.137,0.154c0.08,0.033,0.134,0.06,0.164,0.08l0.084,0.119
			c0.06-0.001,0.107,0.01,0.142,0.034c0.024,0.016,0.077,0.124,0.159,0.322l0.056,0.039c0.026,0.013,0.048,0.007,0.065-0.018
			c-0.019-0.013-0.023-0.046-0.014-0.102c0.014,0.009,0.025,0.007,0.035-0.007c0.032,0.021,0.078,0.114,0.136,0.277l0.037,0.024
			l-0.018,0.025c-0.019,0.028-0.047,0.03-0.085,0.004l-0.028,0.042c0.068,0.108,0.123,0.175,0.163,0.203
			c0.024-0.024,0.046-0.031,0.064-0.018c0.166,0.132,0.234,0.22,0.206,0.262l-0.049,0.028l0.028,0.081l0.037,0.024
			c0.028-0.042,0.055-0.055,0.079-0.039l0.057,0.038l0.175,0.463c-0.047,0.07,0.002,0.197,0.15,0.378
			c0.042,0.065,0.073,0.316,0.092,0.752c0.027,0.019,0.041,0.131,0.043,0.337l-0.043,0.063c-0.01,0.014-0.021,0.017-0.035,0.007
			c-0.019,0.045-0.012,0.103,0.019,0.173l-0.091,0.092l-0.029,0.042l-0.008,0.056l0.051,0.003l0.02,0.014
			c-0.048,0.124-0.08,0.197-0.095,0.219c-0.051,0.006-0.092,0-0.121-0.021l-0.009,0.056c-0.181,0.128-0.303,0.202-0.366,0.221
			c-0.012,0.017-0.158,0.034-0.439,0.049c-0.012-0.029-0.033-0.053-0.063-0.073c-0.023-0.012-0.097-0.01-0.221,0.005
			c-0.021-0.056-0.048-0.094-0.081-0.116c-0.019-0.013-0.057,0.003-0.113,0.047l-0.115-0.108l-0.036-0.025
			c-0.051-0.034-0.106-0.061-0.164-0.08c-0.039-0.047-0.084-0.087-0.135-0.122L8.984,18.69c-0.042-0.13-0.085-0.211-0.131-0.242
			L8.797,18.41c-0.03-0.02-0.06-0.03-0.091-0.031l-0.147-0.26l-0.18-0.091c0.044-0.064-0.02-0.17-0.192-0.315
			c0.009-0.014,0.007-0.025-0.006-0.035l-0.107-0.042c0.046-0.068-0.042-0.219-0.263-0.455c-0.02-0.104-0.066-0.209-0.139-0.316
			c-0.087-0.108-0.163-0.315-0.227-0.622c-0.005-0.102-0.047-0.255-0.125-0.46c0.023-0.034-0.001-0.143-0.073-0.327
			c0.015-0.335,0.014-0.522-0.002-0.563c-0.033-0.021-0.024-0.1,0.024-0.236C7.234,14.575,7.236,14.505,7.274,14.449z M8.271,15.62
			l0.128,0.21c0.018-0.131-0.003-0.218-0.065-0.26l-0.049,0.028L8.271,15.62z M8.388,16.272l0.269-0.145l-0.022-0.046l-0.129-0.087
			l-0.014,0.021C8.298,16.07,8.263,16.156,8.388,16.272z M8.392,16.423c-0.021,0.019-0.035,0.052-0.044,0.1L8.33,16.646l0.012,0.131
			l0.385,0.605L9.2,17.986c0.204,0.244,0.449,0.444,0.735,0.601c0.1,0.055,0.218,0.042,0.354-0.038l0.167-0.22
			c0.054-0.498-0.015-0.92-0.208-1.268c-0.119-0.352-0.417-0.83-0.894-1.436c-0.129-0.186-0.261-0.281-0.395-0.285
			c-0.077-0.019-0.136-0.014-0.176,0.017L8.717,15.41c-0.009,0.072-0.013,0.15-0.01,0.233l0.004,0.237
			c0.114,0.126,0.144,0.23,0.089,0.313c0.027,0.018,0.031,0.042,0.012,0.069L8.76,16.296c-0.003,0.035-0.011,0.06-0.022,0.077
			l-0.021-0.014l-0.05-0.126c-0.034-0.002-0.058-0.008-0.071-0.017C8.37,16.302,8.302,16.371,8.392,16.423z M9.394,14.757
			c0.021-0.026,0.043-0.032,0.064-0.018L9.43,14.782L9.394,14.757z M10.151,19.164l0.041,0.027l0.014-0.021l-0.041-0.027
			L10.151,19.164z M10.277,19.064l0.057,0.038l0.014-0.021l-0.057-0.038L10.277,19.064z"/>
		<path fill="#F6C785" d="M10.62,9.995l0.166,0.31l0.049,0.01l0.104,0.226c0.01,0.009,0.031,0.017,0.064,0.024
			c0.043,0.039,0.128,0.211,0.255,0.516c0.518,1.066,0.791,1.611,0.817,1.635l0.838,1.489c0.036,0.129,0.097,0.279,0.183,0.45
			c0.107,0.374,0.187,0.595,0.241,0.662c-0.058,0.063-0.034,0.16,0.07,0.292l-0.061,0.096l-0.015-0.013l-0.02,0.051
			c-0.094,0.08-0.156,0.106-0.185,0.08c0.009-0.01,0.009-0.02,0-0.028c-0.053,0.058-0.183,0.087-0.39,0.087
			c-0.182-0.06-0.296-0.111-0.342-0.152c-0.02-0.041-0.025-0.066-0.016-0.077l-0.043-0.011c-0.05-0.046-0.065-0.08-0.044-0.103
			l-0.05-0.01l-0.061-0.056c-0.017-0.024-0.017-0.047,0.002-0.067l-0.093-0.05c-0.01-0.009-0.009-0.02,0.003-0.032
			c-0.141-0.082-0.224-0.135-0.25-0.159l0.017-0.019l-0.046-0.007l-0.018-0.017c-0.096-0.087-0.198-0.171-0.306-0.25l-0.094-0.113
			c-0.092-0.043-0.159-0.083-0.2-0.12c-0.009-0.009-0.018-0.028-0.026-0.059c-0.093-0.047-0.372-0.257-0.836-0.63
			c-0.009,0.01-0.039-0.008-0.089-0.054c-0.007-0.006-0.034-0.04-0.08-0.1c-0.097-0.047-0.148-0.073-0.153-0.078
			c-0.017-0.039-0.021-0.063-0.012-0.073l-0.138-0.036l-0.08-0.101c-0.021,0.022-0.041,0.025-0.06,0.008
			c-0.01-0.009-0.009-0.02,0.003-0.032c-0.102-0.028-0.165-0.053-0.189-0.075l-0.011-0.045c-0.216-0.067-0.335-0.112-0.359-0.134
			c-0.146-0.133-0.191-0.28-0.133-0.439L9.137,12.7c0.014-0.135,0.026-0.209,0.038-0.222c0.06-0.065,0.148-0.09,0.266-0.075
			c0.126-0.138,0.24-0.162,0.34-0.07l0.155,0.141c0.01,0.009,0.009,0.02-0.002,0.032l0.049,0.011l0.09,0.082
			c0.089,0.081,0.166,0.131,0.232,0.15c0.044,0.063,0.083,0.111,0.12,0.144c0.034,0.031,0.064,0.047,0.093,0.05
			c0.922,0.965,1.357,1.476,1.304,1.534l0.033,0.03c0.01,0.009,0.028,0.017,0.057,0.024c0.058,0.072,0.094,0.136,0.107,0.194
			c0.067,0.038,0.113,0.068,0.14,0.092l0.044,0.075c-0.048-0.251-0.309-0.859-0.782-1.825c-0.219-0.522-0.373-0.989-0.462-1.402
			c-0.058-0.053-0.181-0.598-0.369-1.635L10.62,9.995z"/>
		<path fill="#F6C785" d="M13.724,8.189c0.251-0.172,0.395-0.237,0.43-0.195c0.025,0.03,0.042,0.063,0.049,0.099
			c0.064,0.018,0.111,0.044,0.14,0.08l0.05,0.06l0.037,0.172c0.026-0.022,0.086-0.006,0.179,0.047
			c-0.038,0.066-0.015,0.148,0.068,0.248c0.026-0.022,0.056-0.013,0.089,0.027c0.006,0.007,0.042,0.09,0.107,0.247
			c0.034,0.014,0.057,0.028,0.07,0.043c-0.013,0.011-0.015,0.022-0.004,0.035l-0.059,0.018c-0.021,0.018-0.02,0.061,0.003,0.131
			c0.031-0.021,0.056-0.021,0.074,0.001c0.121,0.212,0.164,0.333,0.13,0.361c-0.01-0.012-0.023-0.012-0.039,0.001
			c0.014,0.086,0.074,0.226,0.18,0.421c0.037,0.012,0.061,0.025,0.074,0.04c-0.047,0.044-0.063,0.136-0.049,0.276l0.051,0.021
			l0.05,0.06c0.023,0.027,0.02,0.053-0.008,0.077c-0.023-0.027-0.048-0.03-0.074-0.008c0.123,0.279,0.176,0.425,0.16,0.438
			c-0.052,0.043-0.035,0.163,0.053,0.356c0.034,0.353,0.024,0.551-0.028,0.595c-0.016,0.013,0,0.225,0.046,0.635
			c0.213,0.016,0.516-0.094,0.909-0.331c0.063-0.074,0.119-0.131,0.168-0.173l0.125-0.105l0.016,0.019
			c0.005,0.038,0.014,0.064,0.027,0.08l0.023-0.02c0.038,0.044-0.04,0.188-0.232,0.43c0.023,0.027,0.024,0.071,0.003,0.131
			l-0.059,0.017l-0.044,0.107c-0.016,0.013-0.03,0.012-0.042-0.003l-0.083,0.108l-0.02,0.017c-0.032,0.026-0.065,0.042-0.101,0.046
			c-0.011,0.035-0.032,0.065-0.063,0.091l-0.02,0.017c-0.029,0.024-0.055,0.022-0.078-0.005l-0.066,0.088
			c-0.073,0.061-0.168,0.086-0.285,0.074l-0.105,0.12c-0.049-0.026-0.107-0.011-0.175,0.045l-0.02,0.017
			c-0.033,0.083-0.029,0.17,0.013,0.262c-0.08,0.355-0.14,0.549-0.179,0.582l-0.055,0.014c-0.171,0.389-0.269,0.594-0.292,0.613
			l-0.016-0.019c-0.027-0.032-0.017-0.075,0.032-0.128l-0.054-0.025l-0.05-0.06l-0.082,0.069l-0.016-0.019
			c-0.015-0.018-0.01-0.055,0.013-0.112c0.036,0.017,0.059,0.031,0.069,0.043l0.102-0.085c-0.034-0.04-0.039-0.158-0.017-0.354
			c-0.034-0.014-0.057-0.028-0.07-0.043c-0.037,0.03-0.067,0.079-0.091,0.146c-0.01-0.013-0.022-0.013-0.035-0.002l-0.026-0.118
			c-0.023,0.02-0.076,0.042-0.157,0.068c0.044,0.052,0.053,0.089,0.027,0.111l-0.059,0.018c-0.008-0.01-0.026-0.086-0.053-0.229
			c0.047-0.039,0.119-0.065,0.215-0.078l0.02-0.016c0.001-0.12,0.041-0.253,0.119-0.399c-0.027-0.032-0.013-0.156,0.042-0.372
			l-0.066-0.079c-0.115,0.033-0.207,0.008-0.275-0.074c-0.122-0.076-0.193-0.105-0.214-0.088l-0.011-0.061l-0.047-0.056
			l-0.043,0.036l-0.1-0.12c-0.027-0.032-0.09-0.081-0.189-0.146c-0.002-0.108-0.079-0.324-0.229-0.647
			c0.031-0.026-0.005-0.208-0.109-0.544l-0.016-0.019l-0.02,0.017l0.031,0.037c-0.029,0.024-0.054,0.024-0.074-0.001
			c0.027-0.031,0.011-0.175-0.048-0.431c0.017-0.069,0.002-0.159-0.044-0.268c0.03-0.102,0.021-0.183-0.03-0.242l-0.02,0.017
			c-0.001,0.158-0.011,0.244-0.029,0.259l-0.035-0.041c-0.044-0.052-0.032-0.162,0.037-0.33c-0.022-0.027-0.038-0.127-0.044-0.3
			c-0.066-0.08-0.038-0.172,0.088-0.277l-0.055-0.018l-0.035-0.041c0.081-0.068,0.092-0.166,0.033-0.295
			c0.057-0.048,0.082-0.215,0.074-0.5c0.042-0.035,0.086-0.106,0.134-0.214l0.058-0.01c0.014-0.037,0.028-0.062,0.044-0.075
			c0.025,0.025,0.05,0.028,0.074,0.008l0.06-0.222l0.058-0.01C13.779,8.347,13.772,8.285,13.724,8.189z M13.32,10.41l0.016,0.019
			l0.043-0.036c-0.012-0.015-0.022-0.041-0.03-0.076l-0.02,0.016C13.304,10.362,13.301,10.388,13.32,10.41z M13.363,9.834
			l0.011,0.061l0.063-0.053C13.414,9.814,13.389,9.812,13.363,9.834z M13.436,9.34l0.047,0.056c0.056-0.098,0.074-0.158,0.056-0.18
			L13.484,9.23C13.473,9.286,13.457,9.323,13.436,9.34z M13.489,8.991c0.009,0.064,0.023,0.107,0.042,0.13l0.04-0.033
			c-0.044-0.052-0.052-0.09-0.023-0.114l-0.016-0.019L13.489,8.991z M13.521,8.862l0.054,0.025c0.042-0.078,0.055-0.133,0.04-0.167
			l-0.062,0.014l-0.02,0.016C13.513,8.767,13.509,8.805,13.521,8.862z M13.584,10.392c0.026,0.021,0.049,0.022,0.07,0.004
			c0.029-0.024,0.033-0.049,0.012-0.074c-0.023-0.027-0.049-0.029-0.077-0.005C13.567,10.345,13.565,10.37,13.584,10.392z
			 M13.583,8.308l0.059-0.049l0.034,0.041l-0.059,0.049L13.583,8.308z M13.745,11.999l0.035,0.041
			c0.026-0.022,0.028-0.047,0.005-0.074L13.745,11.999z M13.767,9.361l0.05,0.06l0.02-0.017c0.029-0.024,0.032-0.05,0.009-0.077
			l-0.031-0.037C13.798,9.325,13.783,9.349,13.767,9.361z M13.942,11.732l0.05,0.06c0.026,0.025,0.05,0.028,0.074,0.008l0.02-0.017
			L14,11.683L13.942,11.732z M13.96,11.921l0.062,0.113l0.059-0.049l-0.081-0.097L13.96,11.921z M14.17,9.596l0.1,0.12
			c0.013,0.015-0.049,0.122-0.185,0.32c-0.02,0.114-0.011,0.263,0.028,0.447c-0.022,0.196,0.057,0.512,0.235,0.947l0.222,0.551
			l0.031,0.037c0.083,0.02,0.164,0.077,0.243,0.171l0.043-0.036c0.014-0.211-0.005-0.509-0.056-0.894l-0.117-1.014
			c0.026-0.022-0.005-0.13-0.092-0.324c-0.038-0.146-0.046-0.251-0.025-0.316l-0.082-0.097l-0.02,0.017l-0.086,0.104
			c-0.054-0.006-0.107-0.04-0.159-0.102L14.17,9.596z M14.238,12.292l0.034,0.041l0.02-0.016c0.018-0.015,0.022-0.053,0.013-0.112
			l-0.016-0.019l-0.043,0.036C14.221,12.246,14.219,12.269,14.238,12.292z M14.405,12.285l0.104,0.084l0.02-0.017L14.51,12.33
			c-0.034-0.014-0.056-0.027-0.066-0.04c0.013-0.011,0.013-0.024,0.001-0.039L14.405,12.285z M14.411,12.585
			c0.085,0.064,0.139,0.086,0.163,0.067l-0.019-0.022l-0.101-0.081L14.411,12.585z M14.655,12.75l0.05,0.06
			c0.023,0.022,0.047,0.024,0.07,0.004l-0.05-0.06C14.704,12.729,14.681,12.728,14.655,12.75z M14.71,12.569l0.05,0.06
			c0.026,0.021,0.051,0.021,0.074,0.001l0.02-0.016l-0.016-0.019c-0.056-0.008-0.092-0.022-0.108-0.042L14.71,12.569z
			 M14.724,12.291l0.047,0.056c0.028,0.023,0.053,0.025,0.074,0.008c0.028-0.024,0.031-0.05,0.008-0.077L14.724,12.291z
			 M14.81,13.896l0.066,0.079l0.023-0.02c0.026-0.021,0.011-0.066-0.045-0.133C14.84,13.858,14.826,13.883,14.81,13.896z
			 M14.897,14.326l0.02-0.017c0.016-0.013,0.054-0.079,0.114-0.197l-0.05-0.06C14.908,14.215,14.88,14.306,14.897,14.326z
			 M15.419,13.081l0.05,0.06l0.063-0.053l-0.034-0.041C15.482,13.06,15.456,13.071,15.419,13.081z M15.438,12.729l0.019,0.022
			c0.036,0.042,0.268,0.015,0.697-0.083l0.188-0.158c0.193-0.162,0.31-0.327,0.35-0.497l-0.059,0.017
			c-0.034,0.029-0.064,0.088-0.091,0.178l-0.125,0.105l-0.097,0.011c-0.063,0.074-0.111,0.125-0.145,0.153
			C15.888,12.614,15.642,12.697,15.438,12.729z M15.481,12.526l0.05,0.06l0.059-0.049c-0.036-0.017-0.059-0.031-0.069-0.043
			L15.481,12.526z M15.534,12.883l0.019,0.022l0.039-0.033l-0.019-0.022L15.534,12.883z M15.705,12.841l0.016,0.019
			c0.017,0.02,0.054,0.022,0.113,0.007c0.028-0.024,0.032-0.049,0.012-0.074C15.778,12.803,15.731,12.819,15.705,12.841z
			 M16.979,11.404l0.093,0.023l0.016,0.019c-0.063,0.053-0.156,0.22-0.28,0.501l-0.016-0.019c-0.021-0.025-0.01-0.055,0.031-0.09
			l-0.019-0.022l-0.055-0.018L16.979,11.404z M17.109,11.225l0.02-0.016l0.035,0.041c0.017,0.02,0.012,0.057-0.013,0.112
			l-0.02,0.016l-0.016-0.019C17.091,11.287,17.088,11.242,17.109,11.225z M17.23,11.123l0.024-0.02l0.034,0.041l-0.063,0.052
			C17.208,11.165,17.21,11.141,17.23,11.123z M17.29,10.979l0.039-0.033l0.031,0.037l-0.039,0.033L17.29,10.979z"/>
		<path fill="#00BBD6" d="M21.789,4.716c0.021,0.009,0.042,0.036,0.059,0.082l0.028-0.011L22,4.723l0.012,0.032
			c-0.051,0.02-0.072,0.041-0.063,0.062l0.005,0.014c0.144,0.087,0.262,0.184,0.354,0.29c0.051,0.13-0.023,0.327-0.224,0.59
			c-0.06,0.024-0.108,0.084-0.143,0.182c-0.057,0.022-0.098,0.122-0.124,0.3c0.019-0.008,0.031-0.007,0.034,0.002
			c-0.048,0.019-0.068,0.074-0.062,0.165l0.025,0.063l-0.052,0.021l-0.073-0.186c-0.035,0.014-0.036,0.086-0.003,0.216
			c-0.048,0.019-0.064,0.055-0.051,0.109l-0.052,0.021c-0.005-0.012-0.015-0.067-0.032-0.166c-0.056-0.041-0.127-0.144-0.214-0.309
			l0.016-0.043L21.288,6l-0.023-0.059c0.024-0.041,0.034-0.069,0.027-0.084l-0.066-0.099l0.024-0.01l-0.036-0.022l0.041-0.121
			l-0.037-0.095c0.066-0.026,0.099-0.098,0.097-0.216l-0.037-0.022c-0.014-0.036,0.027-0.136,0.124-0.3
			c0.092-0.074,0.134-0.12,0.127-0.139L21.789,4.716z"/>
		<path fill="#F6C785" d="M31.114,1.63l0.071-0.006l0.003,0.034L31.156,1.71l0.056,0.059l-0.029,0.085
			c0.026,0.034,0.042,0.066,0.044,0.099c0.002,0.023-0.001,0.044-0.01,0.064c0.001,0.01,0.006,0.014,0.017,0.014
			c-0.013,0.18-0.073,0.483-0.182,0.909c0.008,0.351-0.026,0.553-0.104,0.604l-0.036,0.003c-0.06-0.024-0.093-0.065-0.097-0.124
			c-0.005-0.064-0.004-0.198,0.003-0.401l-0.041-0.06c0-0.01,0.006-0.015,0.02-0.017c-0.036-0.228-0.079-0.34-0.13-0.336
			c-0.303,0.093-0.59,0.304-0.86,0.632c-0.017,0.001-0.096,0.078-0.237,0.229c0.065,0.043,0.434,0.207,1.106,0.491
			c0.273,0.167,0.414,0.298,0.422,0.396c0.06,0.021,0.092,0.063,0.097,0.124l0.004,0.048c0.01,0.126-0.02,0.321-0.09,0.584
			c0.003,0.042-0.028,0.144-0.093,0.306C31,5.426,30.939,5.519,30.831,5.7c-0.305,0.321-0.546,0.528-0.723,0.621
			c0.003,0.032-0.006,0.049-0.026,0.051L30.044,6.36c-0.229,0.211-0.38,0.321-0.455,0.331c0.001,0.016-0.023,0.046-0.075,0.089
			l-0.037-0.012c-0.052,0.083-0.083,0.124-0.092,0.125c-0.014,0.001-0.021-0.005-0.022-0.018l-0.191,0.167
			c-0.025,0.034-0.094,0.089-0.207,0.163L28.915,7.21c-0.072-0.046-0.114-0.136-0.125-0.269c-0.024,0.002-0.038-0.02-0.042-0.065
			c-0.001-0.013,0.003-0.029,0.011-0.05c-0.015-0.058-0.024-0.107-0.027-0.149l-0.005-0.063c-0.012-0.149,0.113-0.435,0.376-0.856
			c0.267-0.332,0.522-0.567,0.768-0.708C29.925,5.003,30,4.965,30.097,4.934l0.001,0.015c0.118-0.026,0.218-0.072,0.302-0.137
			l0.002,0.029c-0.211,0.177-0.333,0.293-0.366,0.348c-0.133,0.135-0.27,0.366-0.41,0.693l0.005,0.063
			C29.932,5.699,30.216,5.384,30.482,5c0.089-0.161,0.13-0.291,0.122-0.391c-0.009-0.11-0.3-0.245-0.874-0.403
			c-0.341-0.119-0.515-0.22-0.522-0.304c-0.023,0.002-0.036-0.008-0.038-0.031c-0.011-0.129,0.015-0.258,0.076-0.387l-0.023-0.033
			l0.014-0.084c-0.03-0.069-0.045-0.117-0.048-0.143c0.017-0.22,0.264-0.615,0.744-1.185c0.26-0.207,0.473-0.317,0.64-0.331
			l0.02-0.002c0.184-0.015,0.308,0.046,0.374,0.185c0.001,0.013,0.032,0.032,0.092,0.056c0.035-0.114,0.05-0.203,0.044-0.268
			C31.112,1.679,31.116,1.663,31.114,1.63z M29.787,2.579l0.038,0.017l0.026-0.051l-0.001-0.02
			C29.806,2.545,29.786,2.563,29.787,2.579z"/>
		<path fill="#F6C785" d="M34.874,1.853c0.302,0.038,0.453,0.084,0.451,0.14c-0.001,0.039-0.011,0.075-0.029,0.106
			c0.036,0.056,0.053,0.107,0.052,0.153l-0.002,0.078l-0.086,0.153c0.034,0.001,0.068,0.053,0.103,0.154
			c-0.072,0.024-0.11,0.101-0.114,0.23c0.034,0.001,0.05,0.027,0.049,0.08c0,0.01-0.028,0.095-0.084,0.256
			c0.016,0.033,0.023,0.059,0.023,0.079c-0.017,0-0.026,0.007-0.026,0.023l-0.055-0.026c-0.027-0.001-0.056,0.032-0.085,0.1
			c0.038,0.004,0.056,0.021,0.055,0.05c-0.051,0.239-0.099,0.358-0.143,0.356c0-0.016-0.009-0.024-0.03-0.025
			c-0.046,0.073-0.095,0.218-0.146,0.434c0.019,0.033,0.029,0.06,0.028,0.079c-0.065,0.001-0.138,0.06-0.22,0.174l0.024,0.05
			l-0.002,0.078c-0.001,0.036-0.02,0.053-0.058,0.052c0.001-0.036-0.016-0.054-0.049-0.055c-0.094,0.29-0.151,0.434-0.171,0.434
			c-0.068-0.002-0.134,0.098-0.198,0.301c-0.209,0.286-0.348,0.428-0.417,0.426c-0.02,0-0.149,0.168-0.388,0.505
			c0.149,0.154,0.449,0.273,0.899,0.357c0.096-0.013,0.176-0.019,0.24-0.017l0.164,0.005l0,0.024
			c-0.021,0.032-0.033,0.058-0.033,0.077l0.031,0.001c-0.002,0.059-0.155,0.114-0.46,0.167c-0.001,0.036-0.029,0.069-0.084,0.1
			l-0.056-0.026l-0.104,0.05c-0.021,0-0.03-0.01-0.03-0.03l-0.133,0.025l-0.026-0.001c-0.041-0.001-0.076-0.012-0.106-0.032
			c-0.031,0.019-0.067,0.027-0.108,0.026l-0.025,0c-0.038-0.001-0.056-0.02-0.055-0.055L33.36,6.93
			c-0.095-0.003-0.183-0.047-0.262-0.134l-0.159,0.02c-0.019-0.052-0.073-0.08-0.161-0.083l-0.025-0.001
			c-0.08,0.04-0.134,0.108-0.165,0.205c-0.296,0.212-0.469,0.317-0.52,0.316l-0.05-0.026c-0.387,0.177-0.596,0.265-0.626,0.264
			l0.001-0.024c0.001-0.042,0.038-0.067,0.109-0.075l-0.024-0.054L31.48,7.26l-0.107-0.003l0.001-0.024
			c0-0.022,0.028-0.048,0.084-0.075c0.016,0.036,0.023,0.062,0.023,0.079l0.133,0.004c0.001-0.052,0.076-0.144,0.223-0.276
			c-0.016-0.033-0.024-0.059-0.023-0.079c-0.048-0.001-0.103,0.015-0.165,0.049c0-0.016-0.008-0.024-0.025-0.025l0.059-0.105
			c-0.03-0.001-0.084-0.019-0.162-0.054c-0.002,0.068-0.02,0.102-0.054,0.101l-0.056-0.026c0-0.013,0.039-0.082,0.114-0.206
			c0.061,0.002,0.132,0.03,0.212,0.084l0.025,0.001c0.081-0.089,0.199-0.162,0.354-0.219c0.001-0.042,0.094-0.125,0.278-0.25
			l0.003-0.103C32.29,6.08,32.238,6,32.241,5.893c-0.04-0.138-0.074-0.207-0.101-0.208l0.032-0.053l0.002-0.073l-0.056-0.001
			l0.005-0.156c0.001-0.042-0.014-0.121-0.044-0.235c0.071-0.083,0.157-0.294,0.259-0.636c0.041,0.001,0.134-0.158,0.28-0.479
			l0.001-0.024l-0.026,0l-0.001,0.048c-0.038-0.001-0.056-0.018-0.055-0.05c0.041-0.005,0.125-0.123,0.251-0.353
			c0.059-0.041,0.107-0.117,0.145-0.23c0.09-0.056,0.136-0.123,0.139-0.201l-0.025,0c-0.106,0.117-0.17,0.175-0.194,0.175
			l0.001-0.054c0.002-0.068,0.084-0.142,0.247-0.222c0.001-0.036,0.057-0.121,0.166-0.253c0.003-0.104,0.086-0.154,0.25-0.149
			l-0.029-0.049l0.001-0.054c0.105,0.003,0.179-0.063,0.22-0.198c0.075,0.002,0.204-0.106,0.388-0.325
			c0.055,0.001,0.135-0.022,0.242-0.071l0.05,0.03c0.035-0.018,0.062-0.027,0.083-0.026c0.002,0.036,0.019,0.054,0.05,0.055
			l0.192-0.126l0.05,0.031C34.81,2.006,34.847,1.956,34.874,1.853z M31.67,7.216l0.026,0.001c0.021,0,0.093-0.023,0.217-0.072
			l0.002-0.078C31.753,7.141,31.671,7.19,31.67,7.216z M31.891,6.838L31.888,6.94l0.031,0.001c0.034,0.001,0.052-0.042,0.055-0.13
			C31.939,6.83,31.912,6.838,31.891,6.838z M32.357,4.712l-0.001,0.053c0.034,0.001,0.051-0.016,0.052-0.052L32.357,4.712z
			 M32.464,5.593c0.021,0.104,0.046,0.157,0.077,0.158l0.001-0.029l-0.022-0.127L32.464,5.593z M32.53,5.258l-0.001,0.054l0.025,0
			c0.024,0.001,0.052-0.024,0.084-0.076l0.001-0.024l-0.056-0.002C32.549,5.213,32.531,5.229,32.53,5.258z M32.538,5.877
			l-0.002,0.078c0.002,0.033,0.019,0.049,0.049,0.05l0.002-0.078C32.588,5.895,32.572,5.878,32.538,5.877z M32.569,4.796
			L32.54,4.922l0.077,0.002l0.004-0.126L32.569,4.796z M32.66,5.364l0.021,0.132l0.026,0.001l0-0.029
			c-0.016-0.033-0.024-0.058-0.023-0.074c0.017,0,0.026-0.009,0.026-0.029L32.66,5.364z M32.681,4.644l-0.002,0.078
			c0.002,0.036,0.019,0.054,0.049,0.055l0.025,0l0.004-0.131L32.681,4.644z M32.699,5.78l-0.002,0.078
			c0.006,0.033,0.024,0.05,0.055,0.051l0.025,0l0.001-0.024c-0.036-0.043-0.054-0.078-0.053-0.104L32.699,5.78z M32.889,6.633
			l-0.002,0.078l0.082,0.002L32.97,6.66C32.949,6.659,32.922,6.65,32.889,6.633z M32.894,5.581l-0.002,0.073
			c0.006,0.036,0.022,0.054,0.05,0.055c0.037,0.001,0.057-0.016,0.058-0.052L32.894,5.581z M34.272,3.199l-0.004,0.156
			c0,0.02-0.118,0.059-0.351,0.117c-0.091,0.072-0.183,0.189-0.276,0.352c-0.147,0.132-0.299,0.42-0.455,0.864l-0.201,0.559
			l-0.001,0.049c0.049,0.07,0.072,0.166,0.068,0.29l0.056,0.001c0.151-0.148,0.335-0.383,0.552-0.705l0.586-0.835
			c0.034,0.001,0.083-0.1,0.147-0.303c0.068-0.134,0.132-0.219,0.191-0.252l0.003-0.127l-0.025,0L34.43,3.384
			c-0.037-0.04-0.053-0.101-0.051-0.182L34.272,3.199z M33.095,3.243l0,0.024l0.056,0.001c0-0.02,0.01-0.045,0.028-0.077l-0.025,0
			C33.115,3.196,33.096,3.213,33.095,3.243z M33.105,6.562l-0.001,0.029l0.051,0.001l0-0.029L33.105,6.562z M33.136,6.382
			l-0.001,0.029c-0.001,0.055,0.19,0.189,0.576,0.402l0.245,0.007c0.252,0.007,0.449-0.039,0.592-0.139l-0.055-0.026
			c-0.044-0.001-0.106,0.023-0.186,0.073l-0.164-0.005l-0.08-0.056c-0.096,0.014-0.166,0.02-0.21,0.019
			C33.549,6.596,33.31,6.495,33.136,6.382z M33.261,6.644l0,0.024c-0.001,0.026,0.025,0.053,0.079,0.081
			c0.038,0.001,0.057-0.015,0.058-0.047C33.341,6.665,33.295,6.645,33.261,6.644z M33.303,6.26l-0.002,0.078l0.077,0.002
			c-0.016-0.036-0.023-0.062-0.023-0.079L33.303,6.26z M33.305,3.405c0.006,0.033,0.022,0.049,0.05,0.05
			c0.037,0.001,0.057-0.015,0.058-0.047c0.001-0.036-0.017-0.054-0.055-0.055C33.324,3.358,33.306,3.375,33.305,3.405z
			 M33.511,2.841l-0.032,0.053l0.082,0.002C33.562,2.86,33.545,2.842,33.511,2.841z M33.893,2.521l-0.002,0.073
			c0.106-0.036,0.161-0.069,0.161-0.098l-0.05-0.026C33.957,2.504,33.92,2.521,33.893,2.521z M34.166,2.294
			c-0.036,0.054-0.054,0.096-0.055,0.125l0.051,0.002c0.002-0.068,0.021-0.102,0.059-0.101l0-0.024L34.166,2.294z M34.126,2.756
			l-0.002,0.078l0.025,0c0.037,0.001,0.057-0.016,0.058-0.052l0.001-0.049C34.174,2.75,34.147,2.757,34.126,2.756z M34.275,2.22
			l0.024,0.054c0.083-0.03,0.129-0.063,0.141-0.098l-0.055-0.031l-0.025,0C34.332,2.144,34.304,2.169,34.275,2.22z M35.169,6.417
			l0.054,0.08l0,0.024C35.141,6.519,34.96,6.582,34.68,6.71l0-0.024c0.001-0.032,0.029-0.048,0.083-0.046l0.001-0.029l-0.029-0.05
			L35.169,6.417z M34.69,1.847l0.077,0.002l-0.002,0.054L34.688,1.9L34.69,1.847z M35.385,6.37l0.025,0.001l-0.001,0.053
			C35.408,6.451,35.38,6.476,35.325,6.5l-0.026-0.001L35.3,6.475C35.33,6.404,35.358,6.369,35.385,6.37z M35.543,6.375l0.03,0
			l-0.001,0.054l-0.082-0.002C35.499,6.392,35.516,6.374,35.543,6.375z M35.683,6.306l0.051,0.001l-0.001,0.049l-0.051-0.001
			L35.683,6.306z"/>
		<path fill="#F6C785" d="M39.197,1.667c0.229,0.054,0.339,0.121,0.329,0.201c-0.012,0.087-0.087,0.2-0.226,0.338l-0.004,0.029
			l-0.076-0.01c-0.122-0.016-0.307,0.161-0.555,0.53c-0.024-0.003-0.194,0.131-0.513,0.403c-0.007,0.058-0.085,0.136-0.232,0.234
			c-0.009,0.064-0.097,0.21-0.265,0.437c-0.32,0.626-0.564,1.181-0.732,1.667c-0.071,0.145-0.148,0.468-0.233,0.971
			c-0.189,0.466-0.38,0.687-0.572,0.661c-0.184-0.168-0.267-0.32-0.249-0.456c-0.19-0.091-0.274-0.225-0.25-0.402
			c0.125-0.144,0.229-0.34,0.311-0.588c0.114-0.109,0.178-0.215,0.192-0.318c0.003-0.022,0.014-0.232,0.032-0.629
			c0.021-0.03,0.033-0.055,0.036-0.074c-0.051-0.007-0.063-0.105-0.038-0.295l0.006-0.048c0.003-0.02,0.012-0.028,0.029-0.026
			c-0.04-0.061-0.025-0.349,0.043-0.864l0.017-0.125c0.005-0.039,0.001-0.075-0.011-0.109c0.021-0.027,0.034-0.06,0.039-0.098
			l0.063-0.468c0.082-0.251,0.127-0.412,0.137-0.483l-0.002-0.182c0.009-0.064,0.069-0.127,0.18-0.188
			c0.137,0.136,0.32,0.292,0.551,0.467l0.055,0.169l-0.017,0.125c-0.157,0.277-0.238,0.434-0.243,0.469c0,0.125,0,0.195-0.002,0.211
			c-0.051,0.125-0.083,0.243-0.099,0.355L36.89,3.625c0.411-0.555,0.656-0.864,0.737-0.929C38.235,2.08,38.758,1.737,39.197,1.667z"
			/>
		<path fill="#F6C785" d="M43.309,2.527l-0.19,0.295l0.015,0.048l-0.147,0.201c-0.003,0.013,0,0.035,0.01,0.067
			c-0.014,0.057-0.123,0.215-0.327,0.474c-0.68,0.971-1.024,1.473-1.032,1.508l-0.895,1.456c-0.096,0.094-0.197,0.22-0.304,0.378
			c-0.275,0.275-0.429,0.453-0.461,0.532c-0.083-0.02-0.157,0.048-0.221,0.203l-0.114-0.007l0.004-0.019l-0.054,0.007
			c-0.115-0.044-0.169-0.084-0.16-0.123c0.013,0.003,0.021-0.001,0.024-0.014c-0.077-0.018-0.165-0.117-0.266-0.298
			c-0.036-0.189-0.047-0.313-0.033-0.373c0.026-0.037,0.046-0.054,0.06-0.051L39.207,6.77c0.016-0.066,0.039-0.096,0.068-0.089
			L39.26,6.632l0.019-0.081c0.013-0.027,0.033-0.037,0.06-0.031l-0.001-0.105c0.003-0.013,0.013-0.017,0.029-0.013
			c0.003-0.163,0.009-0.261,0.018-0.296l0.025,0.006l-0.016-0.043l0.006-0.024c0.03-0.126,0.053-0.256,0.07-0.389l0.054-0.138
			c-0.007-0.102-0.005-0.18,0.008-0.233c0.003-0.013,0.016-0.029,0.038-0.051c-0.003-0.104,0.045-0.45,0.145-1.037
			c-0.014-0.003-0.012-0.038,0.003-0.104c0.002-0.01,0.019-0.049,0.049-0.119c-0.006-0.108-0.008-0.166-0.007-0.172
			c0.026-0.034,0.045-0.049,0.059-0.046l-0.036-0.138l0.049-0.119c-0.03-0.007-0.042-0.023-0.036-0.049
			c0.003-0.012,0.013-0.017,0.029-0.013c-0.025-0.103-0.034-0.17-0.026-0.202l0.034-0.032c-0.046-0.221-0.065-0.348-0.058-0.379
			c0.045-0.193,0.152-0.303,0.319-0.33l0.13,0.05c0.125-0.054,0.195-0.079,0.212-0.075c0.086,0.021,0.151,0.086,0.195,0.196
			c0.182,0.043,0.258,0.131,0.227,0.264l-0.048,0.204c-0.003,0.013-0.013,0.017-0.029,0.013l0.015,0.049l-0.028,0.118
			c-0.027,0.117-0.033,0.209-0.018,0.276c-0.034,0.069-0.056,0.127-0.067,0.174c-0.011,0.044-0.01,0.079,0.001,0.105
			c-0.395,1.274-0.631,1.903-0.707,1.885l-0.01,0.042c-0.003,0.013,0,0.033,0.007,0.062c-0.034,0.085-0.074,0.148-0.118,0.188
			c-0.001,0.077-0.005,0.132-0.013,0.167l-0.044,0.075c0.196-0.164,0.601-0.688,1.215-1.57c0.35-0.444,0.683-0.806,1.001-1.085
			c0.018-0.076,0.435-0.448,1.25-1.117L43.309,2.527z"/>
		<path fill="#F6C785" d="M46.325,4.274c0.275,0.129,0.404,0.221,0.385,0.272c-0.013,0.037-0.033,0.067-0.06,0.092
			c0.017,0.064,0.017,0.118,0.002,0.161l-0.026,0.073l-0.13,0.119c0.032,0.012,0.049,0.071,0.05,0.178
			c-0.076,0-0.136,0.062-0.18,0.184c0.032,0.011,0.04,0.042,0.022,0.091c-0.003,0.009-0.056,0.082-0.159,0.217
			c0.005,0.037,0.004,0.064-0.002,0.082C46.21,5.738,46.2,5.743,46.194,5.758L46.15,5.717c-0.026-0.009-0.063,0.014-0.112,0.068
			c0.034,0.016,0.046,0.038,0.037,0.065c-0.123,0.211-0.205,0.31-0.247,0.294c0.005-0.015-0.001-0.026-0.021-0.033
			c-0.067,0.056-0.158,0.178-0.273,0.368c0.008,0.038,0.009,0.065,0.002,0.084c-0.062-0.019-0.15,0.014-0.263,0.097l0.007,0.055
			l-0.026,0.073c-0.012,0.034-0.036,0.044-0.071,0.031c0.012-0.033,0.002-0.056-0.03-0.067c-0.179,0.246-0.278,0.366-0.297,0.359
			c-0.064-0.023-0.158,0.052-0.281,0.225c-0.288,0.208-0.464,0.3-0.528,0.277c-0.019-0.007-0.194,0.113-0.525,0.36
			c0.094,0.192,0.342,0.399,0.744,0.619c0.095,0.017,0.173,0.037,0.234,0.058l0.154,0.055l-0.008,0.023
			c-0.03,0.024-0.048,0.045-0.055,0.063l0.029,0.011c-0.02,0.055-0.183,0.06-0.489,0.016c-0.012,0.034-0.049,0.057-0.111,0.069
			l-0.045-0.042L43.861,8.86c-0.019-0.007-0.025-0.02-0.019-0.038l-0.135-0.018l-0.024-0.008c-0.039-0.014-0.069-0.035-0.091-0.064
			c-0.036,0.008-0.073,0.005-0.111-0.009l-0.024-0.008c-0.035-0.013-0.047-0.036-0.035-0.069l-0.109-0.013
			c-0.089-0.032-0.159-0.102-0.207-0.209l-0.157-0.031c-0.002-0.056-0.044-0.099-0.128-0.128l-0.024-0.009
			c-0.088,0.014-0.161,0.062-0.22,0.144c-0.347,0.11-0.544,0.157-0.592,0.139l-0.04-0.04c-0.422,0.048-0.648,0.068-0.677,0.057
			l0.008-0.022c0.014-0.04,0.057-0.052,0.127-0.038l-0.006-0.059l0.026-0.073l-0.101-0.036l0.008-0.023
			c0.008-0.021,0.042-0.037,0.104-0.046c0.004,0.04,0.003,0.067-0.002,0.082l0.125,0.045c0.018-0.049,0.117-0.113,0.297-0.193
			C41.85,8.156,41.85,8.128,41.857,8.11c-0.045-0.016-0.103-0.018-0.172-0.005c0.006-0.015,0-0.026-0.016-0.031l0.089-0.082
			c-0.029-0.01-0.074-0.044-0.137-0.101c-0.023,0.064-0.05,0.09-0.083,0.079l-0.045-0.042c0.004-0.012,0.062-0.066,0.172-0.161
			c0.058,0.021,0.116,0.069,0.176,0.146l0.024,0.008c0.104-0.059,0.239-0.092,0.404-0.098c0.014-0.04,0.128-0.09,0.342-0.151
			l0.035-0.097C42.559,7.493,42.534,7.401,42.57,7.3c0.004-0.144-0.006-0.22-0.032-0.229l0.047-0.04l0.024-0.069l-0.053-0.019
			l0.053-0.146c0.014-0.04,0.024-0.119,0.031-0.237c0.093-0.057,0.24-0.231,0.443-0.524c0.039,0.014,0.177-0.109,0.415-0.369
			l0.008-0.023l-0.024-0.009l-0.017,0.046c-0.035-0.013-0.047-0.034-0.037-0.065c0.041,0.008,0.157-0.078,0.348-0.258
			c0.069-0.02,0.138-0.078,0.209-0.173c0.103-0.025,0.167-0.075,0.194-0.148l-0.024-0.008c-0.137,0.079-0.216,0.114-0.239,0.105
			l0.018-0.05c0.023-0.064,0.124-0.109,0.303-0.134c0.012-0.034,0.091-0.097,0.236-0.19c0.035-0.098,0.129-0.119,0.283-0.064
			l-0.012-0.056l0.018-0.05c0.099,0.036,0.189-0.004,0.271-0.12c0.07,0.025,0.227-0.038,0.469-0.189
			c0.051,0.019,0.135,0.021,0.252,0.008l0.038,0.044c0.039-0.007,0.067-0.007,0.087,0c-0.009,0.035,0.001,0.057,0.03,0.067
			l0.222-0.06l0.039,0.045C46.216,4.4,46.268,4.363,46.325,4.274z M41.618,8.382l0.024,0.009c0.019,0.007,0.095,0.006,0.228-0.001
			l0.026-0.074C41.72,8.335,41.627,8.357,41.618,8.382z M41.945,8.09l-0.035,0.096l0.029,0.01c0.032,0.012,0.063-0.024,0.093-0.106
			C41.994,8.097,41.964,8.097,41.945,8.09z M42.857,7.377l-0.026,0.074c-0.008,0.032,0.003,0.053,0.032,0.063l0.026-0.073
			C42.9,7.41,42.89,7.389,42.857,7.377z M42.876,7.083c-0.013,0.106-0.004,0.164,0.024,0.174l0.01-0.027l0.019-0.128L42.876,7.083z
			 M42.957,8.205l-0.026,0.073l0.077,0.028l0.018-0.051C43.006,8.248,42.983,8.231,42.957,8.205z M43.041,7.334l-0.026,0.073
			c-0.004,0.033,0.008,0.055,0.037,0.065l0.024,0.008l0.008-0.023c-0.021-0.052-0.027-0.09-0.019-0.115L43.041,7.334z M43.042,6.786
			l-0.018,0.051l0.024,0.008c0.022,0.008,0.057-0.007,0.103-0.046l0.008-0.023l-0.053-0.019C43.074,6.749,43.052,6.759,43.042,6.786
			z M43.047,6.213l-0.018,0.051c0.032,0.011,0.054,0,0.066-0.033L43.047,6.213z M43.133,6.927L43.112,7.06l0.024,0.009l0.01-0.027
			c-0.005-0.037-0.005-0.062,0-0.078c0.016,0.006,0.027,0,0.034-0.019L43.133,6.927z M43.223,6.359l-0.067,0.11l0.072,0.026
			l0.042-0.119L43.223,6.359z M43.185,8.204l-0.01,0.027l0.048,0.018l0.01-0.028L43.185,8.204z M43.27,8.042L43.26,8.07
			c-0.019,0.052,0.123,0.239,0.423,0.56l0.23,0.083c0.237,0.085,0.439,0.102,0.605,0.051l-0.044-0.042
			c-0.042-0.015-0.108-0.011-0.199,0.011l-0.154-0.055l-0.059-0.078c-0.095-0.017-0.164-0.033-0.206-0.048
			C43.597,8.374,43.4,8.203,43.27,8.042z M43.288,7.206l-0.025,0.069c-0.005,0.036,0.004,0.059,0.03,0.067
			c0.035,0.013,0.059,0.002,0.071-0.031L43.288,7.206z M43.308,8.331L43.3,8.354c-0.009,0.024,0.008,0.058,0.051,0.101
			c0.035,0.013,0.058,0.004,0.069-0.027C43.377,8.374,43.34,8.342,43.308,8.331z M43.376,6.249L43.35,6.322
			c-0.009,0.035,0.001,0.057,0.03,0.067l0.024,0.009l0.044-0.124L43.376,6.249z M45.336,5.368l-0.053,0.146
			c-0.006,0.019-0.129,0.019-0.37,0.002c-0.108,0.041-0.232,0.124-0.372,0.25c-0.181,0.08-0.414,0.307-0.7,0.68l-0.364,0.47
			l-0.017,0.046c0.025,0.082,0.017,0.181-0.025,0.296l0.053,0.019c0.189-0.094,0.437-0.261,0.743-0.499l0.816-0.613
			c0.032,0.011,0.11-0.069,0.233-0.243c0.107-0.106,0.194-0.167,0.26-0.181l0.043-0.119l-0.024-0.009l-0.133-0.022
			c-0.022-0.049-0.02-0.112,0.008-0.188L45.336,5.368z M43.467,7.979L43.44,8.052l0.072,0.026c-0.004-0.039-0.003-0.066,0.002-0.082
			L43.467,7.979z M44.204,5.045l-0.008,0.023l0.053,0.019c0.006-0.019,0.023-0.04,0.05-0.065l-0.024-0.009
			C44.237,5.007,44.214,5.017,44.204,5.045z M44.353,5.264c-0.004,0.033,0.006,0.054,0.032,0.063
			C44.42,5.34,44.443,5.331,44.454,5.3c0.012-0.034,0-0.057-0.035-0.069C44.385,5.226,44.363,5.236,44.353,5.264z M45.192,8.706
			l0.027,0.092L45.21,8.821c-0.077-0.027-0.268-0.023-0.574,0.012l0.008-0.023c0.011-0.03,0.042-0.037,0.094-0.018l0.01-0.028
			l-0.013-0.056L45.192,8.706z M44.724,4.792l-0.047,0.04l0.077,0.027C44.766,4.825,44.755,4.803,44.724,4.792z M45.186,4.605
			l-0.024,0.069c0.112-0.001,0.174-0.016,0.184-0.043l-0.04-0.04C45.251,4.61,45.212,4.615,45.186,4.605z M45.412,8.728l0.024,0.009
			l-0.018,0.05c-0.009,0.025-0.043,0.04-0.103,0.046l-0.024-0.009l0.008-0.023C45.349,8.743,45.386,8.719,45.412,8.728z
			 M45.335,4.902l-0.026,0.073l0.024,0.009c0.035,0.013,0.059,0.002,0.071-0.032l0.016-0.045C45.382,4.91,45.354,4.909,45.335,4.902
			z M45.515,4.475c-0.051,0.04-0.081,0.074-0.091,0.102l0.048,0.018c0.023-0.064,0.052-0.09,0.087-0.078l0.008-0.023L45.515,4.475z
			 M45.561,8.781l0.029,0.01l-0.018,0.05l-0.077-0.027C45.514,8.783,45.536,8.772,45.561,8.781z M45.643,4.438l0.006,0.059
			c0.088-0.003,0.143-0.02,0.164-0.05L45.77,4.4l-0.024-0.008C45.72,4.383,45.686,4.398,45.643,4.438z M45.716,8.759l0.048,0.018
			l-0.017,0.046l-0.048-0.018L45.716,8.759z M46.152,4.211l0.072,0.026l-0.018,0.051l-0.072-0.026L46.152,4.211z"/>
	</g>
	<g>
		<rect x="3.283" y="36.264" fill="none" width="6.169" height="11.135"/>
	</g>
	<g>
	</g>
	<g>
	</g>
	<g>
	</g>
	<g>
	</g>
	<g>
	</g>
	<g>
	</g>
</g>
</svg>
